# xmcd CD database file
#
# Track frame offsets:
#	150
#	11359
#	24186
#	36610
#	46808
#	57196
#	69275
#	81536
#	91568
#	103094
#	111423
#	119160
#	130269
#	142481
#	152017
#	163926
#	172845
#	184011
#	195371
#	206751
#
# Disc length: 2887 seconds
#
# Revision: 5
# Processed by: cddbd v1.5.1PL0 Copyright (c) Steve Scherf et al.
# Submitted via: CDex 1.51
#
DISCID=170b4514
DTITLE=Johnny Cash - Country Greatest
DYEAR=2000
DGENRE=Country
TTITLE0=Cry! Cry! Cry!
TTITLE1=Folsom Prison Blues
TTITLE2=I Walk The Line
TTITLE3=Get Rhythm
TTITLE4=There You Go
TTITLE5=Home Of The Blues
TTITLE6=Give My Love To Rose
TTITLE7=Ballad Of A Teenage Queen
TTITLE8=Big Rver
TTITLE9=Guess Things Happen That Way
TTITLE10=Come In Stranger
TTITLE11=The Ways Of A Woman In Love
TTITLE12=You're The Nearest Thing To Heaven
TTITLE13=Luther Played The Boogie
TTITLE14=Thanks A Lot
TTITLE15=Katy Too!
TTITLE16=I Love You Because
TTITLE17=Mean-Eyed Cat
TTITLE18=Oh, Lonesome Me
TTITLE19=Rock Island Line
EXTD=YEAR: 2000
EXTT0=
EXTT1=
EXTT2=
EXTT3=
EXTT4=
EXTT5=
EXTT6=New unreleased version (Bear Family Box]\n
EXTT7=
EXTT8=
EXTT9=
EXTT10=
EXTT11=Without the Gene Lowry Singers\n
EXTT12=Without the Gene Lowry Singers\n
EXTT13=
EXTT14=
EXTT15=
EXTT16=
EXTT17=
EXTT18=
EXTT19=
PLAYORDER=
